<?xml version="1.0" encoding="UTF-8" standalone="no"?>
<svg
   xmlns:dc="http://purl.org/dc/elements/1.1/"
   xmlns:cc="http://creativecommons.org/ns#"
   xmlns:rdf="http://www.w3.org/1999/02/22-rdf-syntax-ns#"
   xmlns:svg="http://www.w3.org/2000/svg"
   xmlns="http://www.w3.org/2000/svg"
   xmlns:sodipodi="http://sodipodi.sourceforge.net/DTD/sodipodi-0.dtd"
   xmlns:inkscape="http://www.inkscape.org/namespaces/inkscape"
   height="8mm"
   viewBox="0 0 30.236218 30.236218"
   width="8mm"
   version="1.1"
   id="svg4534"
   sodipodi:docname="key1.svg"
   inkscape:version="0.92.4 (5da689c313, 2019-01-14)">
  <metadata
     id="metadata4540">
    <rdf:RDF>
      <cc:Work
         rdf:about="">
        <dc:format>image/svg+xml</dc:format>
        <dc:type
           rdf:resource="http://purl.org/dc/dcmitype/StillImage" />
        <dc:title></dc:title>
      </cc:Work>
    </rdf:RDF>
  </metadata>
  <defs
     id="defs4538" />
  <sodipodi:namedview
     pagecolor="#ffffff"
     bordercolor="#666666"
     borderopacity="1"
     objecttolerance="10"
     gridtolerance="10"
     guidetolerance="10"
     inkscape:pageopacity="0"
     inkscape:pageshadow="2"
     inkscape:window-width="1920"
     inkscape:window-height="1017"
     id="namedview4536"
     showgrid="false"
     units="mm"
     width="24mm"
     inkscape:zoom="12.521683"
     inkscape:cx="-16.690045"
     inkscape:cy="27.812241"
     inkscape:window-x="1912"
     inkscape:window-y="-8"
     inkscape:window-maximized="1"
     inkscape:current-layer="svg4534" />
  <path
     d="M 0,6.2362354 H 24 V 30.236235 H 0 Z"
     id="path4530"
     inkscape:connector-curvature="0"
     style="fill:none" />
  <path
     d="m 12.65,16.236235 c -0.82,-2.33 -3.04,-4 -5.65,-4 -3.31,0 -6,2.69 -6,6 0,3.31 2.69,6 6,6 2.61,0 4.83,-1.67 5.65,-4 H 17 v 4 h 4 v -4 h 2 v -4 z m -5.65,4 c -1.1,0 -2,-0.9 -2,-2 0,-1.1 0.9,-2 2,-2 1.1,0 2,0.9 2,2 0,1.1 -0.9,2 -2,2 z"
     id="path4532"
     inkscape:connector-curvature="0" />
  <path
     style="fill:none;stroke:#000000;stroke-width:1px;stroke-linecap:butt;stroke-linejoin:miter;stroke-opacity:1"
     d="M 11.632941,9.9632801 15.84,14.678574 26.682353,4.7397507 26.089412,4.0621037 15.981176,13.379751 12.395294,9.3138684 Z"
     id="path4550"
     inkscape:connector-curvature="0" />
</svg>
