<svg xmlns="http://www.w3.org/2000/svg" xmlns:svg="http://www.w3.org/2000/svg" id="svg4534" width="8mm" height="8mm" version="1.1" viewBox="0 0 30.236 30.236"><metadata id="metadata4540"/><path id="path4530" fill="none" d="M 0,6.2362354 H 24 V 30.236235 H 0 Z"/><path id="path4532" d="m 12.65,16.236235 c -0.82,-2.33 -3.04,-4 -5.65,-4 -3.31,0 -6,2.69 -6,6 0,3.31 2.69,6 6,6 2.61,0 4.83,-1.67 5.65,-4 H 17 v 4 h 4 v -4 h 2 v -4 z m -5.65,4 c -1.1,0 -2,-0.9 -2,-2 0,-1.1 0.9,-2 2,-2 1.1,0 2,0.9 2,2 0,1.1 -0.9,2 -2,2 z"/><path id="path4550" fill="none" stroke="#000" stroke-linecap="butt" stroke-linejoin="miter" stroke-opacity="1" stroke-width="1" d="M 11.632941,9.9632801 15.84,14.678574 26.682353,4.7397507 26.089412,4.0621037 15.981176,13.379751 12.395294,9.3138684 Z"/></svg>