<svg xmlns="http://www.w3.org/2000/svg" xmlns:xlink="http://www.w3.org/1999/xlink" viewBox="0 0 856 492"><defs><style>.cls-1{fill:#3d404c}.cls-2{fill:url(#Unbenannter_Verlauf_129)}.cls-3{opacity:.84}.cls-4{fill:url(#Unbenannter_Verlauf_77)}.cls-5{fill:url(#Unbenannter_Verlauf_77-2)}.cls-6{fill:#fff}</style><linearGradient id="Unbenannter_Verlauf_129" x1="204.87" x2="339.13" y1="252.37" y2="252.37" gradientUnits="userSpaceOnUse"><stop offset=".54" stop-color="#7554ff"/><stop offset=".75" stop-color="#4a5bff"/><stop offset="1" stop-color="#1563ff"/></linearGradient><linearGradient id="Unbenannter_Verlauf_77" x1="239.27" x2="380.96" y1="261.49" y2="261.49" gradientUnits="userSpaceOnUse"><stop offset="0" stop-color="#f0f"/><stop offset=".6" stop-color="#e62ae7"/><stop offset="1" stop-color="#d449d5"/></linearGradient><linearGradient id="Unbenannter_Verlauf_77-2" x1="162.11" x2="265.07" y1="222.45" y2="222.45" xlink:href="#Unbenannter_Verlauf_77"/></defs><title>Element 4</title><g id="Ebene_2" data-name="Ebene 2"><g id="Ebene_3" data-name="Ebene 3"><rect width="856" height="492" class="cls-1"/></g><g id="Ebene_2-2" data-name="Ebene 2"><path d="M212.78,205H331.22a7.89,7.89,0,0,1,6.31,12.62l-59.22,79a7.9,7.9,0,0,1-12.62,0l-59.22-79A7.89,7.89,0,0,1,212.78,205Z" class="cls-2"/><g class="cls-3"><path d="M278.24,334.33,379.13,199.52A9.08,9.08,0,0,0,371.86,185h-45.3a9.07,9.07,0,0,0-7.28,3.65L241.07,293.54a9.08,9.08,0,0,0,0,10.9l22.61,29.92A9.08,9.08,0,0,0,278.24,334.33Z" class="cls-4"/><path d="M221.24,256.23l42-56.74A9.08,9.08,0,0,0,256,185H171.21A9.08,9.08,0,0,0,164,199.54l42.74,56.75A9.08,9.08,0,0,0,221.24,256.23Z" class="cls-5"/></g><path d="M407.56,290.72l-8.85-72.61a1.88,1.88,0,0,1,1.87-2.11h17.28a1.88,1.88,0,0,1,1.87,1.73l2.43,30.4c.87,10.4,1.19,20.77,1.19,26.09h.34c3-7.9,6.75-15.42,12.08-25.91L451.66,217a1.89,1.89,0,0,1,1.68-1h18a1.88,1.88,0,0,1,1.65,2.79L432.9,291.4a1.89,1.89,0,0,1-1.65,1H409.43A1.89,1.89,0,0,1,407.56,290.72Z" class="cls-6"/><path d="M525.12,258.32c0,15.22-8.73,35.32-34.85,35.32-18.79,0-25.87-11.23-25.87-24.58,0-16.27,10.33-36.08,34.18-36.08C515.17,233,525.12,242.19,525.12,258.32Zm-39.71,12.49c0,5.94,2.21,9,6.52,9,8.72,0,12.25-17.16,12.25-24.65,0-5.54-2.14-8.28-6.58-8.28C489.13,246.9,485.41,263.3,485.41,270.81Z" class="cls-6"/><path d="M547.29,212H564a1.88,1.88,0,0,1,1.84,2.27L561.63,234a1.88,1.88,0,0,0,2.83,2,21.21,21.21,0,0,1,11.74-3c11.15,0,18.32,8,18.32,21.23,0,17.52-9.21,39.43-30.93,39.43-5.63,0-9.14-1.5-11.37-3.46l-3,.87h0l-1.8,1.33H531a1.88,1.88,0,0,1-1.84-2.29c.82-3.68,1.8-8.22,2.67-12.2l13.62-64.36A1.87,1.87,0,0,1,547.29,212Zm26.22,43.75c0-5.48-2.14-8.07-6.76-8.07-5.93,0-10,5.31-12.28,16.81-2,9.75-.37,14.56,6,14.56C569.6,279.09,573.51,263.18,573.51,255.79Z" class="cls-6"/><path d="M623.35,267.58a1.89,1.89,0,0,0-1.87,1.65c-.06.41-.09.83-.11,1.27-.19,5.09,1.43,9.32,6.68,9.32,4.53,0,6.81-2.6,8.28-6h17.94A1.89,1.89,0,0,1,656,276.5c-4.05,9.1-13,17.14-29.41,17.14-18.44,0-25.7-11-25.7-24.47,0-14.85,8.44-36.19,33.41-36.19,18.39,0,25.81,10,25.81,23.44a40.23,40.23,0,0,1-1.21,9.73,1.88,1.88,0,0,1-1.83,1.43Zm15.37-11.34a1.89,1.89,0,0,0,1.88-1.75c0-.39,0-.73,0-1.05,0-3.86-1.54-7.14-6.49-7.14-4.51,0-7.46,2.67-9.23,7.39a1.89,1.89,0,0,0,1.77,2.55Z" class="cls-6"/></g></g></svg>