<svg xmlns="http://www.w3.org/2000/svg" xmlns:xlink="http://www.w3.org/1999/xlink" viewBox="0 0 218.85 152.97"><defs><style>.cls-1{fill:url(#Unbenannter_Verlauf_129)}.cls-2{opacity:.84}.cls-3{fill:url(#Unbenannter_Verlauf_77)}.cls-4{fill:url(#Unbenannter_Verlauf_77-2)}</style><linearGradient id="Unbenannter_Verlauf_129" x1="42.77" x2="177.02" y1="67.37" y2="67.37" gradientUnits="userSpaceOnUse"><stop offset=".54" stop-color="#7554ff"/><stop offset=".75" stop-color="#4a5bff"/><stop offset="1" stop-color="#1563ff"/></linearGradient><linearGradient id="Unbenannter_Verlauf_77" x1="77.16" x2="218.85" y1="76.49" y2="76.49" gradientUnits="userSpaceOnUse"><stop offset="0" stop-color="#f0f"/><stop offset=".6" stop-color="#e62ae7"/><stop offset="1" stop-color="#d449d5"/></linearGradient><linearGradient id="Unbenannter_Verlauf_77-2" x1="0" x2="102.96" y1="37.45" y2="37.45" xlink:href="#Unbenannter_Verlauf_77"/></defs><title>Element 6</title><g id="Ebene_2" data-name="Ebene 2"><g id="Ebene_2-2" data-name="Ebene 2"><path d="M50.67,20H169.11a7.89,7.89,0,0,1,6.31,12.62l-59.22,79a7.9,7.9,0,0,1-12.62,0l-59.22-79A7.89,7.89,0,0,1,50.67,20Z" class="cls-1"/><g class="cls-2"><path d="M116.13,149.33,217,14.52A9.08,9.08,0,0,0,209.75,0h-45.3a9.07,9.07,0,0,0-7.28,3.65L79,108.54a9.08,9.08,0,0,0,0,10.9l22.61,29.92A9.08,9.08,0,0,0,116.13,149.33Z" class="cls-3"/><path d="M59.13,71.23l42-56.74A9.08,9.08,0,0,0,93.86,0H9.1A9.08,9.08,0,0,0,1.84,14.54L44.58,71.29A9.08,9.08,0,0,0,59.13,71.23Z" class="cls-4"/></g></g></g></svg>