<svg xmlns="http://www.w3.org/2000/svg" xmlns:xlink="http://www.w3.org/1999/xlink" viewBox="0 0 497.98 152.97"><defs><style>.cls-1{fill:url(#Unbenannter_Verlauf_129);}.cls-2{opacity:0.84;}.cls-3{fill:url(#Unbenannter_Verlauf_77);}.cls-4{fill:url(#Unbenannter_Verlauf_77-2);}.cls-5{fill:#fff;}</style><linearGradient id="Unbenannter_Verlauf_129" x1="42.77" y1="67.37" x2="177.02" y2="67.37" gradientUnits="userSpaceOnUse"><stop offset="0.54" stop-color="#7554ff"/><stop offset="0.75" stop-color="#4a5bff"/><stop offset="1" stop-color="#1563ff"/></linearGradient><linearGradient id="Unbenannter_Verlauf_77" x1="77.16" y1="76.49" x2="218.85" y2="76.49" gradientUnits="userSpaceOnUse"><stop offset="0" stop-color="#f0f"/><stop offset="0.6" stop-color="#e62ae7"/><stop offset="1" stop-color="#d449d5"/></linearGradient><linearGradient id="Unbenannter_Verlauf_77-2" x1="0" y1="37.45" x2="102.96" y2="37.45" xlink:href="#Unbenannter_Verlauf_77"/></defs><title>Element 5</title><g id="Ebene_2" data-name="Ebene 2"><g id="Ebene_2-2" data-name="Ebene 2"><path class="cls-1" d="M50.67,20H169.11a7.89,7.89,0,0,1,6.31,12.62l-59.22,79a7.9,7.9,0,0,1-12.62,0l-59.22-79A7.89,7.89,0,0,1,50.67,20Z"/><g class="cls-2"><path class="cls-3" d="M116.13,149.33,217,14.52A9.08,9.08,0,0,0,209.75,0h-45.3a9.07,9.07,0,0,0-7.28,3.65L79,108.54a9.08,9.08,0,0,0,0,10.9l22.61,29.92A9.08,9.08,0,0,0,116.13,149.33Z"/><path class="cls-4" d="M59.13,71.23l42-56.74A9.08,9.08,0,0,0,93.86,0H9.1A9.08,9.08,0,0,0,1.84,14.54L44.58,71.29A9.08,9.08,0,0,0,59.13,71.23Z"/></g><path class="cls-5" d="M245.45,105.72,236.6,33.11A1.88,1.88,0,0,1,238.47,31h17.28a1.88,1.88,0,0,1,1.87,1.73l2.43,30.4c.87,10.4,1.19,20.77,1.19,26.09h.34c3-7.9,6.75-15.42,12.08-25.91L289.55,32a1.89,1.89,0,0,1,1.68-1h18a1.88,1.88,0,0,1,1.65,2.79l-40.1,72.61a1.89,1.89,0,0,1-1.65,1H247.32A1.89,1.89,0,0,1,245.45,105.72Z"/><path class="cls-5" d="M363,73.32c0,15.22-8.73,35.32-34.85,35.32-18.79,0-25.87-11.23-25.87-24.58,0-16.27,10.33-36.08,34.18-36.08C353.06,48,363,57.19,363,73.32ZM323.3,85.81c0,5.94,2.21,9,6.52,9,8.72,0,12.25-17.16,12.25-24.65,0-5.54-2.14-8.28-6.58-8.28C327,61.9,323.3,78.3,323.3,85.81Z"/><path class="cls-5" d="M385.18,27h16.73a1.88,1.88,0,0,1,1.84,2.27L399.52,49a1.88,1.88,0,0,0,2.83,2,21.21,21.21,0,0,1,11.74-3c11.15,0,18.32,8,18.32,21.23,0,17.52-9.21,39.43-30.93,39.43-5.63,0-9.14-1.5-11.37-3.46l-3,.87h0l-1.8,1.33h-16.4a1.88,1.88,0,0,1-1.84-2.29c.82-3.68,1.8-8.22,2.67-12.2l13.62-64.36A1.87,1.87,0,0,1,385.18,27ZM411.4,70.79c0-5.48-2.14-8.07-6.76-8.07-5.93,0-10,5.31-12.28,16.81-1.95,9.75-.36,14.56,6,14.56C407.49,94.09,411.4,78.18,411.4,70.79Z"/><path class="cls-5" d="M461.24,82.58a1.89,1.89,0,0,0-1.87,1.65c-.05.41-.09.83-.11,1.27-.19,5.09,1.43,9.32,6.68,9.32,4.53,0,6.81-2.6,8.28-6h17.94a1.89,1.89,0,0,1,1.71,2.68c-4.05,9.1-13,17.14-29.41,17.14-18.44,0-25.7-11-25.7-24.47,0-14.85,8.44-36.19,33.41-36.19C490.56,48,498,58,498,71.42a40.23,40.23,0,0,1-1.21,9.73,1.88,1.88,0,0,1-1.83,1.43Zm15.37-11.34a1.89,1.89,0,0,0,1.88-1.75c0-.39,0-.73,0-1,0-3.86-1.53-7.14-6.49-7.14-4.51,0-7.46,2.67-9.23,7.39a1.89,1.89,0,0,0,1.77,2.55Z"/></g></g></svg>